<?xml version="1.0" encoding="UTF-8" standalone="no"?>
<!DOCTYPE svg PUBLIC "-//W3C//DTD SVG 1.1//EN"
 "http://www.w3.org/Graphics/SVG/1.1/DTD/svg11.dtd">
<!-- Generated by graphviz version 2.47.0 (20210316.0004)
 -->
<!-- Title: dependencies Pages: 1 -->
<svg width="504pt" height="211pt"
 viewBox="0.00 0.00 504.00 211.00" xmlns="http://www.w3.org/2000/svg" xmlns:xlink="http://www.w3.org/1999/xlink">
<g id="graph0" class="graph" transform="scale(1 1) rotate(0) translate(4 207)">
<title>dependencies</title>
<polygon fill="white" stroke="transparent" points="-4,4 -4,-207 500,-207 500,4 -4,4"/>
<text text-anchor="start" x="227.01" y="-42.4" font-family="Times-12" font-weight="bold" font-size="14.00">Legend</text>
<polygon fill="#ffffb3" stroke="transparent" points="14,-10 14,-30 34,-30 34,-10 14,-10"/>
<text text-anchor="start" x="37.63" y="-15.4" font-family="Times-12" font-size="14.00"> &#160;Declarations</text>
<polygon fill="#8dd3c7" stroke="transparent" points="127,-10 127,-30 147,-30 147,-10 127,-10"/>
<text text-anchor="start" x="150.73" y="-15.4" font-family="Times-12" font-size="14.00"> &#160;Module</text>
<polygon fill="#80b1d3" stroke="transparent" points="213,-10 213,-30 233,-30 233,-10 213,-10"/>
<text text-anchor="start" x="236.78" y="-15.4" font-family="Times-12" font-size="14.00"> &#160;Bootstrap</text>
<polygon fill="#fdb462" stroke="transparent" points="310,-10 310,-30 330,-30 330,-10 310,-10"/>
<text text-anchor="start" x="333.67" y="-15.4" font-family="Times-12" font-size="14.00"> &#160;Providers</text>
<polygon fill="#fb8072" stroke="transparent" points="406,-10 406,-30 426,-30 426,-10 406,-10"/>
<text text-anchor="start" x="429.73" y="-15.4" font-family="Times-12" font-size="14.00"> &#160;Exports</text>
<g id="clust1" class="cluster">
<title>cluster_HelpModule</title>
<polygon fill="none" stroke="black" stroke-dasharray="1,5" points="84,-70 84,-195 412,-195 412,-70 84,-70"/>
</g>
<g id="clust2" class="cluster">
<title>cluster_HelpModule_declarations</title>
<polygon fill="none" stroke="black" points="248,-78 248,-130 404,-130 404,-78 248,-78"/>
</g>
<g id="clust4" class="cluster">
<title>cluster_HelpModule_imports</title>
<polygon fill="none" stroke="black" points="92,-78 92,-130 240,-130 240,-78 92,-78"/>
</g>
<!-- HelpIndexComponent -->
<g id="node1" class="node">
<title>HelpIndexComponent</title>
<polygon fill="#ffffb3" stroke="black" points="396.42,-122 255.58,-122 255.58,-86 396.42,-86 396.42,-122"/>
<text text-anchor="middle" x="326" y="-99.8" font-family="Times,serif" font-size="14.00">HelpIndexComponent</text>
</g>
<!-- HelpModule -->
<g id="node2" class="node">
<title>HelpModule</title>
<polygon fill="#8dd3c7" stroke="black" points="289.26,-187 286.26,-191 265.26,-191 262.26,-187 202.74,-187 202.74,-151 289.26,-151 289.26,-187"/>
<text text-anchor="middle" x="246" y="-164.8" font-family="Times,serif" font-size="14.00">HelpModule</text>
</g>
<!-- HelpIndexComponent&#45;&gt;HelpModule -->
<g id="edge1" class="edge">
<title>HelpIndexComponent&#45;&gt;HelpModule</title>
<path fill="none" stroke="black" d="M272.59,-122.11C272.59,-122.11 272.59,-140.99 272.59,-140.99"/>
<polygon fill="black" stroke="black" points="269.09,-140.99 272.59,-150.99 276.09,-140.99 269.09,-140.99"/>
</g>
<!-- HelpRoutingModule -->
<g id="node3" class="node">
<title>HelpRoutingModule</title>
<polygon fill="#8dd3c7" stroke="black" points="231.88,-122 228.88,-126 207.88,-126 204.88,-122 100.12,-122 100.12,-86 231.88,-86 231.88,-122"/>
<text text-anchor="middle" x="166" y="-99.8" font-family="Times,serif" font-size="14.00">HelpRoutingModule</text>
</g>
<!-- HelpRoutingModule&#45;&gt;HelpModule -->
<g id="edge2" class="edge">
<title>HelpRoutingModule&#45;&gt;HelpModule</title>
<path fill="none" stroke="black" d="M217.28,-122.11C217.28,-122.11 217.28,-140.99 217.28,-140.99"/>
<polygon fill="black" stroke="black" points="213.78,-140.99 217.28,-150.99 220.78,-140.99 213.78,-140.99"/>
</g>
</g>
</svg>
