<?xml version="1.0" encoding="UTF-8" standalone="no"?>
<!DOCTYPE svg PUBLIC "-//W3C//DTD SVG 1.1//EN"
 "http://www.w3.org/Graphics/SVG/1.1/DTD/svg11.dtd">
<!-- Generated by graphviz version 2.47.0 (20210316.0004)
 -->
<!-- Title: dependencies Pages: 1 -->
<svg width="504pt" height="211pt"
 viewBox="0.00 0.00 504.00 211.00" xmlns="http://www.w3.org/2000/svg" xmlns:xlink="http://www.w3.org/1999/xlink">
<g id="graph0" class="graph" transform="scale(1 1) rotate(0) translate(4 207)">
<title>dependencies</title>
<polygon fill="white" stroke="transparent" points="-4,4 -4,-207 500,-207 500,4 -4,4"/>
<text text-anchor="start" x="227.01" y="-42.4" font-family="Times-12" font-weight="bold" font-size="14.00">Legend</text>
<polygon fill="#ffffb3" stroke="transparent" points="14,-10 14,-30 34,-30 34,-10 14,-10"/>
<text text-anchor="start" x="37.63" y="-15.4" font-family="Times-12" font-size="14.00"> &#160;Declarations</text>
<polygon fill="#8dd3c7" stroke="transparent" points="127,-10 127,-30 147,-30 147,-10 127,-10"/>
<text text-anchor="start" x="150.73" y="-15.4" font-family="Times-12" font-size="14.00"> &#160;Module</text>
<polygon fill="#80b1d3" stroke="transparent" points="213,-10 213,-30 233,-30 233,-10 213,-10"/>
<text text-anchor="start" x="236.78" y="-15.4" font-family="Times-12" font-size="14.00"> &#160;Bootstrap</text>
<polygon fill="#fdb462" stroke="transparent" points="310,-10 310,-30 330,-30 330,-10 310,-10"/>
<text text-anchor="start" x="333.67" y="-15.4" font-family="Times-12" font-size="14.00"> &#160;Providers</text>
<polygon fill="#fb8072" stroke="transparent" points="406,-10 406,-30 426,-30 426,-10 406,-10"/>
<text text-anchor="start" x="429.73" y="-15.4" font-family="Times-12" font-size="14.00"> &#160;Exports</text>
<g id="clust1" class="cluster">
<title>cluster_StartModule</title>
<polygon fill="none" stroke="black" stroke-dasharray="1,5" points="87,-70 87,-195 409,-195 409,-70 87,-70"/>
</g>
<g id="clust4" class="cluster">
<title>cluster_StartModule_imports</title>
<polygon fill="none" stroke="black" points="253,-78 253,-130 401,-130 401,-78 253,-78"/>
</g>
<g id="clust2" class="cluster">
<title>cluster_StartModule_declarations</title>
<polygon fill="none" stroke="black" points="95,-78 95,-130 245,-130 245,-78 95,-78"/>
</g>
<!-- StartPageComponent -->
<g id="node1" class="node">
<title>StartPageComponent</title>
<polygon fill="#ffffb3" stroke="black" points="237.48,-122 102.52,-122 102.52,-86 237.48,-86 237.48,-122"/>
<text text-anchor="middle" x="170" y="-99.8" font-family="Times,serif" font-size="14.00">StartPageComponent</text>
</g>
<!-- StartModule -->
<g id="node2" class="node">
<title>StartModule</title>
<polygon fill="#8dd3c7" stroke="black" points="290.99,-187 287.99,-191 266.99,-191 263.99,-187 205.01,-187 205.01,-151 290.99,-151 290.99,-187"/>
<text text-anchor="middle" x="248" y="-164.8" font-family="Times,serif" font-size="14.00">StartModule</text>
</g>
<!-- StartPageComponent&#45;&gt;StartModule -->
<g id="edge1" class="edge">
<title>StartPageComponent&#45;&gt;StartModule</title>
<path fill="none" stroke="black" d="M221.25,-122.11C221.25,-122.11 221.25,-140.99 221.25,-140.99"/>
<polygon fill="black" stroke="black" points="217.75,-140.99 221.25,-150.99 224.75,-140.99 217.75,-140.99"/>
</g>
<!-- StartRoutingModule -->
<g id="node3" class="node">
<title>StartRoutingModule</title>
<polygon fill="#8dd3c7" stroke="black" points="392.61,-122 389.61,-126 368.61,-126 365.61,-122 261.39,-122 261.39,-86 392.61,-86 392.61,-122"/>
<text text-anchor="middle" x="327" y="-99.8" font-family="Times,serif" font-size="14.00">StartRoutingModule</text>
</g>
<!-- StartRoutingModule&#45;&gt;StartModule -->
<g id="edge2" class="edge">
<title>StartRoutingModule&#45;&gt;StartModule</title>
<path fill="none" stroke="black" d="M276.22,-122.11C276.22,-122.11 276.22,-140.99 276.22,-140.99"/>
<polygon fill="black" stroke="black" points="272.72,-140.99 276.22,-150.99 279.72,-140.99 272.72,-140.99"/>
</g>
</g>
</svg>
