<?xml version="1.0" encoding="UTF-8" standalone="no"?>
<!DOCTYPE svg PUBLIC "-//W3C//DTD SVG 1.1//EN"
 "http://www.w3.org/Graphics/SVG/1.1/DTD/svg11.dtd">
<!-- Generated by graphviz version 2.47.0 (20210316.0004)
 -->
<!-- Title: dependencies Pages: 1 -->
<svg width="1231pt" height="284pt"
 viewBox="0.00 0.00 1231.00 284.00" xmlns="http://www.w3.org/2000/svg" xmlns:xlink="http://www.w3.org/1999/xlink">
<g id="graph0" class="graph" transform="scale(1 1) rotate(0) translate(4 280)">
<title>dependencies</title>
<polygon fill="white" stroke="transparent" points="-4,4 -4,-280 1227,-280 1227,4 -4,4"/>
<text text-anchor="start" x="590.51" y="-42.4" font-family="Times-12" font-weight="bold" font-size="14.00">Legend</text>
<polygon fill="#ffffb3" stroke="transparent" points="377.5,-10 377.5,-30 397.5,-30 397.5,-10 377.5,-10"/>
<text text-anchor="start" x="401.13" y="-15.4" font-family="Times-12" font-size="14.00"> &#160;Declarations</text>
<polygon fill="#8dd3c7" stroke="transparent" points="490.5,-10 490.5,-30 510.5,-30 510.5,-10 490.5,-10"/>
<text text-anchor="start" x="514.23" y="-15.4" font-family="Times-12" font-size="14.00"> &#160;Module</text>
<polygon fill="#80b1d3" stroke="transparent" points="576.5,-10 576.5,-30 596.5,-30 596.5,-10 576.5,-10"/>
<text text-anchor="start" x="600.28" y="-15.4" font-family="Times-12" font-size="14.00"> &#160;Bootstrap</text>
<polygon fill="#fdb462" stroke="transparent" points="673.5,-10 673.5,-30 693.5,-30 693.5,-10 673.5,-10"/>
<text text-anchor="start" x="697.17" y="-15.4" font-family="Times-12" font-size="14.00"> &#160;Providers</text>
<polygon fill="#fb8072" stroke="transparent" points="769.5,-10 769.5,-30 789.5,-30 789.5,-10 769.5,-10"/>
<text text-anchor="start" x="793.23" y="-15.4" font-family="Times-12" font-size="14.00"> &#160;Exports</text>
<g id="clust1" class="cluster">
<title>cluster_AppModule</title>
<polygon fill="none" stroke="black" stroke-dasharray="1,5" points="8,-70 8,-268 1215,-268 1215,-70 8,-70"/>
</g>
<g id="clust6" class="cluster">
<title>cluster_AppModule_imports</title>
<polygon fill="none" stroke="black" points="490,-78 490,-130 1207,-130 1207,-78 490,-78"/>
</g>
<g id="clust2" class="cluster">
<title>cluster_AppModule_declarations</title>
<polygon fill="none" stroke="black" points="16,-78 16,-130 482,-130 482,-78 16,-78"/>
</g>
<g id="clust8" class="cluster">
<title>cluster_AppModule_bootstrap</title>
<polygon fill="none" stroke="black" points="592,-208 592,-260 716,-260 716,-208 592,-208"/>
</g>
<!-- AppComponent -->
<g id="node1" class="node">
<title>AppComponent</title>
<polygon fill="#ffffb3" stroke="black" points="473.94,-122 368.06,-122 368.06,-86 473.94,-86 473.94,-122"/>
<text text-anchor="middle" x="421" y="-99.8" font-family="Times,serif" font-size="14.00">AppComponent</text>
</g>
<!-- AppModule -->
<g id="node4" class="node">
<title>AppModule</title>
<polygon fill="#8dd3c7" stroke="black" points="695.66,-187 692.66,-191 671.66,-191 668.66,-187 612.34,-187 612.34,-151 695.66,-151 695.66,-187"/>
<text text-anchor="middle" x="654" y="-164.8" font-family="Times,serif" font-size="14.00">AppModule</text>
</g>
<!-- AppComponent&#45;&gt;AppModule -->
<g id="edge1" class="edge">
<title>AppComponent&#45;&gt;AppModule</title>
<path fill="none" stroke="black" d="M421,-122.27C421,-140.56 421,-166 421,-166 421,-166 602.08,-166 602.08,-166"/>
<polygon fill="black" stroke="black" points="602.08,-169.5 612.08,-166 602.08,-162.5 602.08,-169.5"/>
</g>
<!-- NavigationComponent -->
<g id="node2" class="node">
<title>NavigationComponent</title>
<polygon fill="#ffffb3" stroke="black" points="350.54,-122 207.46,-122 207.46,-86 350.54,-86 350.54,-122"/>
<text text-anchor="middle" x="279" y="-99.8" font-family="Times,serif" font-size="14.00">NavigationComponent</text>
</g>
<!-- NavigationComponent&#45;&gt;AppModule -->
<g id="edge2" class="edge">
<title>NavigationComponent&#45;&gt;AppModule</title>
<path fill="none" stroke="black" d="M279,-122.13C279,-142.57 279,-173 279,-173 279,-173 602.07,-173 602.07,-173"/>
<polygon fill="black" stroke="black" points="602.07,-176.5 612.07,-173 602.07,-169.5 602.07,-176.5"/>
</g>
<!-- NotFoundPageComponent -->
<g id="node3" class="node">
<title>NotFoundPageComponent</title>
<polygon fill="#ffffb3" stroke="black" points="189.82,-122 24.18,-122 24.18,-86 189.82,-86 189.82,-122"/>
<text text-anchor="middle" x="107" y="-99.8" font-family="Times,serif" font-size="14.00">NotFoundPageComponent</text>
</g>
<!-- NotFoundPageComponent&#45;&gt;AppModule -->
<g id="edge3" class="edge">
<title>NotFoundPageComponent&#45;&gt;AppModule</title>
<path fill="none" stroke="black" d="M107,-122.01C107,-144.49 107,-180 107,-180 107,-180 601.99,-180 601.99,-180"/>
<polygon fill="black" stroke="black" points="601.99,-183.5 611.99,-180 601.99,-176.5 601.99,-183.5"/>
</g>
<!-- AppComponent  -->
<g id="node11" class="node">
<title>AppComponent </title>
<polygon fill="#80b1d3" stroke="black" points="708.44,-252 599.56,-252 599.56,-216 708.44,-216 708.44,-252"/>
<text text-anchor="middle" x="654" y="-229.8" font-family="Times,serif" font-size="14.00">AppComponent </text>
</g>
<!-- AppModule&#45;&gt;AppComponent  -->
<g id="edge10" class="edge">
<title>AppModule&#45;&gt;AppComponent </title>
<path fill="none" stroke="black" stroke-dasharray="1,5" d="M654,-187.11C654,-187.11 654,-205.99 654,-205.99"/>
<polygon fill="black" stroke="black" points="650.5,-205.99 654,-215.99 657.5,-205.99 650.5,-205.99"/>
</g>
<!-- AppRoutingModule -->
<g id="node5" class="node">
<title>AppRoutingModule</title>
<polygon fill="#8dd3c7" stroke="black" points="1199.27,-122 1196.27,-126 1175.27,-126 1172.27,-122 1070.73,-122 1070.73,-86 1199.27,-86 1199.27,-122"/>
<text text-anchor="middle" x="1135" y="-99.8" font-family="Times,serif" font-size="14.00">AppRoutingModule</text>
</g>
<!-- AppRoutingModule&#45;&gt;AppModule -->
<g id="edge4" class="edge">
<title>AppRoutingModule&#45;&gt;AppModule</title>
<path fill="none" stroke="black" d="M1135,-122.01C1135,-144.49 1135,-180 1135,-180 1135,-180 705.84,-180 705.84,-180"/>
<polygon fill="black" stroke="black" points="705.84,-176.5 695.84,-180 705.84,-183.5 705.84,-176.5"/>
</g>
<!-- AuthModule -->
<g id="node6" class="node">
<title>AuthModule</title>
<polygon fill="#8dd3c7" stroke="black" points="1052.55,-122 1049.55,-126 1028.55,-126 1025.55,-122 965.45,-122 965.45,-86 1052.55,-86 1052.55,-122"/>
<text text-anchor="middle" x="1009" y="-99.8" font-family="Times,serif" font-size="14.00">AuthModule</text>
</g>
<!-- AuthModule&#45;&gt;AppModule -->
<g id="edge5" class="edge">
<title>AuthModule&#45;&gt;AppModule</title>
<path fill="none" stroke="black" d="M1009,-122.13C1009,-142.57 1009,-173 1009,-173 1009,-173 705.77,-173 705.77,-173"/>
<polygon fill="black" stroke="black" points="705.77,-169.5 695.77,-173 705.77,-176.5 705.77,-169.5"/>
</g>
<!-- CustomerModule -->
<g id="node7" class="node">
<title>CustomerModule</title>
<polygon fill="#8dd3c7" stroke="black" points="946.99,-122 943.99,-126 922.99,-126 919.99,-122 833.01,-122 833.01,-86 946.99,-86 946.99,-122"/>
<text text-anchor="middle" x="890" y="-99.8" font-family="Times,serif" font-size="14.00">CustomerModule</text>
</g>
<!-- CustomerModule&#45;&gt;AppModule -->
<g id="edge6" class="edge">
<title>CustomerModule&#45;&gt;AppModule</title>
<path fill="none" stroke="black" d="M890,-122.27C890,-140.56 890,-166 890,-166 890,-166 705.92,-166 705.92,-166"/>
<polygon fill="black" stroke="black" points="705.92,-162.5 695.92,-166 705.92,-169.5 705.92,-162.5"/>
</g>
<!-- LegalModule -->
<g id="node8" class="node">
<title>LegalModule</title>
<polygon fill="#8dd3c7" stroke="black" points="814.92,-122 811.92,-126 790.92,-126 787.92,-122 723.08,-122 723.08,-86 814.92,-86 814.92,-122"/>
<text text-anchor="middle" x="769" y="-99.8" font-family="Times,serif" font-size="14.00">LegalModule</text>
</g>
<!-- LegalModule&#45;&gt;AppModule -->
<g id="edge7" class="edge">
<title>LegalModule&#45;&gt;AppModule</title>
<path fill="none" stroke="black" d="M769,-122.01C769,-138.05 769,-159 769,-159 769,-159 705.84,-159 705.84,-159"/>
<polygon fill="black" stroke="black" points="705.84,-155.5 695.84,-159 705.84,-162.5 705.84,-155.5"/>
</g>
<!-- ProductModule -->
<g id="node9" class="node">
<title>ProductModule</title>
<polygon fill="#8dd3c7" stroke="black" points="705.6,-122 702.6,-126 681.6,-126 678.6,-122 602.4,-122 602.4,-86 705.6,-86 705.6,-122"/>
<text text-anchor="middle" x="654" y="-99.8" font-family="Times,serif" font-size="14.00">ProductModule</text>
</g>
<!-- ProductModule&#45;&gt;AppModule -->
<g id="edge8" class="edge">
<title>ProductModule&#45;&gt;AppModule</title>
<path fill="none" stroke="black" d="M654,-122.11C654,-122.11 654,-140.99 654,-140.99"/>
<polygon fill="black" stroke="black" points="650.5,-140.99 654,-150.99 657.5,-140.99 650.5,-140.99"/>
</g>
<!-- StartModule -->
<g id="node10" class="node">
<title>StartModule</title>
<polygon fill="#8dd3c7" stroke="black" points="583.99,-122 580.99,-126 559.99,-126 556.99,-122 498.01,-122 498.01,-86 583.99,-86 583.99,-122"/>
<text text-anchor="middle" x="541" y="-99.8" font-family="Times,serif" font-size="14.00">StartModule</text>
</g>
<!-- StartModule&#45;&gt;AppModule -->
<g id="edge9" class="edge">
<title>StartModule&#45;&gt;AppModule</title>
<path fill="none" stroke="black" d="M541,-122.01C541,-138.05 541,-159 541,-159 541,-159 602.24,-159 602.24,-159"/>
<polygon fill="black" stroke="black" points="602.24,-162.5 612.24,-159 602.24,-155.5 602.24,-162.5"/>
</g>
</g>
</svg>
