<?xml version="1.0" encoding="UTF-8" standalone="no"?>
<!DOCTYPE svg PUBLIC "-//W3C//DTD SVG 1.1//EN"
 "http://www.w3.org/Graphics/SVG/1.1/DTD/svg11.dtd">
<!-- Generated by graphviz version 2.47.0 (20210316.0004)
 -->
<!-- Title: dependencies Pages: 1 -->
<svg width="504pt" height="211pt"
 viewBox="0.00 0.00 504.00 211.00" xmlns="http://www.w3.org/2000/svg" xmlns:xlink="http://www.w3.org/1999/xlink">
<g id="graph0" class="graph" transform="scale(1 1) rotate(0) translate(4 207)">
<title>dependencies</title>
<polygon fill="white" stroke="transparent" points="-4,4 -4,-207 500,-207 500,4 -4,4"/>
<text text-anchor="start" x="227.01" y="-42.4" font-family="Times-12" font-weight="bold" font-size="14.00">Legend</text>
<polygon fill="#ffffb3" stroke="transparent" points="14,-10 14,-30 34,-30 34,-10 14,-10"/>
<text text-anchor="start" x="37.63" y="-15.4" font-family="Times-12" font-size="14.00"> &#160;Declarations</text>
<polygon fill="#8dd3c7" stroke="transparent" points="127,-10 127,-30 147,-30 147,-10 127,-10"/>
<text text-anchor="start" x="150.73" y="-15.4" font-family="Times-12" font-size="14.00"> &#160;Module</text>
<polygon fill="#80b1d3" stroke="transparent" points="213,-10 213,-30 233,-30 233,-10 213,-10"/>
<text text-anchor="start" x="236.78" y="-15.4" font-family="Times-12" font-size="14.00"> &#160;Bootstrap</text>
<polygon fill="#fdb462" stroke="transparent" points="310,-10 310,-30 330,-30 330,-10 310,-10"/>
<text text-anchor="start" x="333.67" y="-15.4" font-family="Times-12" font-size="14.00"> &#160;Providers</text>
<polygon fill="#fb8072" stroke="transparent" points="406,-10 406,-30 426,-30 426,-10 406,-10"/>
<text text-anchor="start" x="429.73" y="-15.4" font-family="Times-12" font-size="14.00"> &#160;Exports</text>
<g id="clust1" class="cluster">
<title>cluster_AuthModule</title>
<polygon fill="none" stroke="black" stroke-dasharray="1,5" points="30.5,-70 30.5,-195 465.5,-195 465.5,-70 30.5,-70"/>
</g>
<g id="clust2" class="cluster">
<title>cluster_AuthModule_declarations</title>
<polygon fill="none" stroke="black" points="299.5,-78 299.5,-130 457.5,-130 457.5,-78 299.5,-78"/>
</g>
<g id="clust4" class="cluster">
<title>cluster_AuthModule_imports</title>
<polygon fill="none" stroke="black" points="38.5,-78 38.5,-130 291.5,-130 291.5,-78 38.5,-78"/>
</g>
<!-- LoginPageComponent -->
<g id="node1" class="node">
<title>LoginPageComponent</title>
<polygon fill="#ffffb3" stroke="black" points="449.49,-122 307.51,-122 307.51,-86 449.49,-86 449.49,-122"/>
<text text-anchor="middle" x="378.5" y="-99.8" font-family="Times,serif" font-size="14.00">LoginPageComponent</text>
</g>
<!-- AuthModule -->
<g id="node2" class="node">
<title>AuthModule</title>
<polygon fill="#8dd3c7" stroke="black" points="261.05,-187 258.05,-191 237.05,-191 234.05,-187 173.95,-187 173.95,-151 261.05,-151 261.05,-187"/>
<text text-anchor="middle" x="217.5" y="-164.8" font-family="Times,serif" font-size="14.00">AuthModule</text>
</g>
<!-- LoginPageComponent&#45;&gt;AuthModule -->
<g id="edge1" class="edge">
<title>LoginPageComponent&#45;&gt;AuthModule</title>
<path fill="none" stroke="black" d="M378.5,-122.11C378.5,-141.34 378.5,-169 378.5,-169 378.5,-169 271.07,-169 271.07,-169"/>
<polygon fill="black" stroke="black" points="271.07,-165.5 261.07,-169 271.07,-172.5 271.07,-165.5"/>
</g>
<!-- AuthRoutingModule -->
<g id="node3" class="node">
<title>AuthRoutingModule</title>
<polygon fill="#8dd3c7" stroke="black" points="283.67,-122 280.67,-126 259.67,-126 256.67,-122 151.33,-122 151.33,-86 283.67,-86 283.67,-122"/>
<text text-anchor="middle" x="217.5" y="-99.8" font-family="Times,serif" font-size="14.00">AuthRoutingModule</text>
</g>
<!-- AuthRoutingModule&#45;&gt;AuthModule -->
<g id="edge2" class="edge">
<title>AuthRoutingModule&#45;&gt;AuthModule</title>
<path fill="none" stroke="black" d="M217.5,-122.11C217.5,-122.11 217.5,-140.99 217.5,-140.99"/>
<polygon fill="black" stroke="black" points="214,-140.99 217.5,-150.99 221,-140.99 214,-140.99"/>
</g>
<!-- CoreModule -->
<g id="node4" class="node">
<title>CoreModule</title>
<polygon fill="#8dd3c7" stroke="black" points="132.76,-122 129.76,-126 108.76,-126 105.76,-122 46.24,-122 46.24,-86 132.76,-86 132.76,-122"/>
<text text-anchor="middle" x="89.5" y="-99.8" font-family="Times,serif" font-size="14.00">CoreModule</text>
</g>
<!-- CoreModule&#45;&gt;AuthModule -->
<g id="edge3" class="edge">
<title>CoreModule&#45;&gt;AuthModule</title>
<path fill="none" stroke="black" d="M89.5,-122.11C89.5,-141.34 89.5,-169 89.5,-169 89.5,-169 163.81,-169 163.81,-169"/>
<polygon fill="black" stroke="black" points="163.81,-172.5 173.81,-169 163.81,-165.5 163.81,-172.5"/>
</g>
</g>
</svg>
