<?xml version="1.0" encoding="UTF-8" standalone="no"?>
<!DOCTYPE svg PUBLIC "-//W3C//DTD SVG 1.1//EN"
 "http://www.w3.org/Graphics/SVG/1.1/DTD/svg11.dtd">
<!-- Generated by graphviz version 2.47.0 (20210316.0004)
 -->
<!-- Title: dependencies Pages: 1 -->
<svg width="989pt" height="211pt"
 viewBox="0.00 0.00 989.00 211.00" xmlns="http://www.w3.org/2000/svg" xmlns:xlink="http://www.w3.org/1999/xlink">
<g id="graph0" class="graph" transform="scale(1 1) rotate(0) translate(4 207)">
<title>dependencies</title>
<polygon fill="white" stroke="transparent" points="-4,4 -4,-207 985,-207 985,4 -4,4"/>
<text text-anchor="start" x="469.51" y="-42.4" font-family="Times-12" font-weight="bold" font-size="14.00">Legend</text>
<polygon fill="#ffffb3" stroke="transparent" points="256.5,-10 256.5,-30 276.5,-30 276.5,-10 256.5,-10"/>
<text text-anchor="start" x="280.13" y="-15.4" font-family="Times-12" font-size="14.00"> &#160;Declarations</text>
<polygon fill="#8dd3c7" stroke="transparent" points="369.5,-10 369.5,-30 389.5,-30 389.5,-10 369.5,-10"/>
<text text-anchor="start" x="393.23" y="-15.4" font-family="Times-12" font-size="14.00"> &#160;Module</text>
<polygon fill="#80b1d3" stroke="transparent" points="455.5,-10 455.5,-30 475.5,-30 475.5,-10 455.5,-10"/>
<text text-anchor="start" x="479.28" y="-15.4" font-family="Times-12" font-size="14.00"> &#160;Bootstrap</text>
<polygon fill="#fdb462" stroke="transparent" points="552.5,-10 552.5,-30 572.5,-30 572.5,-10 552.5,-10"/>
<text text-anchor="start" x="576.17" y="-15.4" font-family="Times-12" font-size="14.00"> &#160;Providers</text>
<polygon fill="#fb8072" stroke="transparent" points="648.5,-10 648.5,-30 668.5,-30 668.5,-10 648.5,-10"/>
<text text-anchor="start" x="672.23" y="-15.4" font-family="Times-12" font-size="14.00"> &#160;Exports</text>
<g id="clust1" class="cluster">
<title>cluster_ProductModule</title>
<polygon fill="none" stroke="black" stroke-dasharray="1,5" points="8,-70 8,-195 973,-195 973,-70 8,-70"/>
</g>
<g id="clust2" class="cluster">
<title>cluster_ProductModule_declarations</title>
<polygon fill="none" stroke="black" points="292,-78 292,-130 965,-130 965,-78 292,-78"/>
</g>
<g id="clust7" class="cluster">
<title>cluster_ProductModule_imports</title>
<polygon fill="none" stroke="black" points="16,-78 16,-130 284,-130 284,-78 16,-78"/>
</g>
<!-- ProductEditComponent -->
<g id="node1" class="node">
<title>ProductEditComponent</title>
<polygon fill="#ffffb3" stroke="black" points="957.21,-122 808.79,-122 808.79,-86 957.21,-86 957.21,-122"/>
<text text-anchor="middle" x="883" y="-99.8" font-family="Times,serif" font-size="14.00">ProductEditComponent</text>
</g>
<!-- ProductModule -->
<g id="node5" class="node">
<title>ProductModule</title>
<polygon fill="#8dd3c7" stroke="black" points="510.6,-187 507.6,-191 486.6,-191 483.6,-187 407.4,-187 407.4,-151 510.6,-151 510.6,-187"/>
<text text-anchor="middle" x="459" y="-164.8" font-family="Times,serif" font-size="14.00">ProductModule</text>
</g>
<!-- ProductEditComponent&#45;&gt;ProductModule -->
<g id="edge1" class="edge">
<title>ProductEditComponent&#45;&gt;ProductModule</title>
<path fill="none" stroke="black" d="M883,-122.28C883,-143.32 883,-175 883,-175 883,-175 520.57,-175 520.57,-175"/>
<polygon fill="black" stroke="black" points="520.57,-171.5 510.57,-175 520.57,-178.5 520.57,-171.5"/>
</g>
<!-- ProductIndexComponent -->
<g id="node2" class="node">
<title>ProductIndexComponent</title>
<polygon fill="#ffffb3" stroke="black" points="791.26,-122 634.74,-122 634.74,-86 791.26,-86 791.26,-122"/>
<text text-anchor="middle" x="713" y="-99.8" font-family="Times,serif" font-size="14.00">ProductIndexComponent</text>
</g>
<!-- ProductIndexComponent&#45;&gt;ProductModule -->
<g id="edge2" class="edge">
<title>ProductIndexComponent&#45;&gt;ProductModule</title>
<path fill="none" stroke="black" d="M713,-122.02C713,-139.37 713,-163 713,-163 713,-163 520.71,-163 520.71,-163"/>
<polygon fill="black" stroke="black" points="520.71,-159.5 510.71,-163 520.71,-166.5 520.71,-159.5"/>
</g>
<!-- ProductListComponent -->
<g id="node3" class="node">
<title>ProductListComponent</title>
<polygon fill="#ffffb3" stroke="black" points="616.16,-122 469.84,-122 469.84,-86 616.16,-86 616.16,-122"/>
<text text-anchor="middle" x="543" y="-99.8" font-family="Times,serif" font-size="14.00">ProductListComponent</text>
</g>
<!-- ProductListComponent&#45;&gt;ProductModule -->
<g id="edge3" class="edge">
<title>ProductListComponent&#45;&gt;ProductModule</title>
<path fill="none" stroke="black" d="M490.11,-122.11C490.11,-122.11 490.11,-140.99 490.11,-140.99"/>
<polygon fill="black" stroke="black" points="486.61,-140.99 490.11,-150.99 493.61,-140.99 486.61,-140.99"/>
</g>
<!-- ProductNewComponent -->
<g id="node4" class="node">
<title>ProductNewComponent</title>
<polygon fill="#ffffb3" stroke="black" points="451.81,-122 300.19,-122 300.19,-86 451.81,-86 451.81,-122"/>
<text text-anchor="middle" x="376" y="-99.8" font-family="Times,serif" font-size="14.00">ProductNewComponent</text>
</g>
<!-- ProductNewComponent&#45;&gt;ProductModule -->
<g id="edge4" class="edge">
<title>ProductNewComponent&#45;&gt;ProductModule</title>
<path fill="none" stroke="black" d="M429.55,-122.11C429.55,-122.11 429.55,-140.99 429.55,-140.99"/>
<polygon fill="black" stroke="black" points="426.05,-140.99 429.55,-150.99 433.05,-140.99 426.05,-140.99"/>
</g>
<!-- CoreModule -->
<g id="node6" class="node">
<title>CoreModule</title>
<polygon fill="#8dd3c7" stroke="black" points="276.26,-122 273.26,-126 252.26,-126 249.26,-122 189.74,-122 189.74,-86 276.26,-86 276.26,-122"/>
<text text-anchor="middle" x="233" y="-99.8" font-family="Times,serif" font-size="14.00">CoreModule</text>
</g>
<!-- CoreModule&#45;&gt;ProductModule -->
<g id="edge5" class="edge">
<title>CoreModule&#45;&gt;ProductModule</title>
<path fill="none" stroke="black" d="M233,-122.02C233,-139.37 233,-163 233,-163 233,-163 397.43,-163 397.43,-163"/>
<polygon fill="black" stroke="black" points="397.43,-166.5 407.43,-163 397.43,-159.5 397.43,-166.5"/>
</g>
<!-- ProductRoutingModule -->
<g id="node7" class="node">
<title>ProductRoutingModule</title>
<polygon fill="#8dd3c7" stroke="black" points="172.22,-122 169.22,-126 148.22,-126 145.22,-122 23.78,-122 23.78,-86 172.22,-86 172.22,-122"/>
<text text-anchor="middle" x="98" y="-99.8" font-family="Times,serif" font-size="14.00">ProductRoutingModule</text>
</g>
<!-- ProductRoutingModule&#45;&gt;ProductModule -->
<g id="edge6" class="edge">
<title>ProductRoutingModule&#45;&gt;ProductModule</title>
<path fill="none" stroke="black" d="M98,-122.28C98,-143.32 98,-175 98,-175 98,-175 397.28,-175 397.28,-175"/>
<polygon fill="black" stroke="black" points="397.28,-178.5 407.28,-175 397.28,-171.5 397.28,-178.5"/>
</g>
</g>
</svg>
