<?xml version="1.0" encoding="UTF-8" standalone="no"?>
<!DOCTYPE svg PUBLIC "-//W3C//DTD SVG 1.1//EN"
 "http://www.w3.org/Graphics/SVG/1.1/DTD/svg11.dtd">
<!-- Generated by graphviz version 2.47.0 (20210316.0004)
 -->
<!-- Title: dependencies Pages: 1 -->
<svg width="504pt" height="284pt"
 viewBox="0.00 0.00 504.00 284.00" xmlns="http://www.w3.org/2000/svg" xmlns:xlink="http://www.w3.org/1999/xlink">
<g id="graph0" class="graph" transform="scale(1 1) rotate(0) translate(4 280)">
<title>dependencies</title>
<polygon fill="white" stroke="transparent" points="-4,4 -4,-280 500,-280 500,4 -4,4"/>
<text text-anchor="start" x="227.01" y="-42.4" font-family="Times-12" font-weight="bold" font-size="14.00">Legend</text>
<polygon fill="#ffffb3" stroke="transparent" points="14,-10 14,-30 34,-30 34,-10 14,-10"/>
<text text-anchor="start" x="37.63" y="-15.4" font-family="Times-12" font-size="14.00"> &#160;Declarations</text>
<polygon fill="#8dd3c7" stroke="transparent" points="127,-10 127,-30 147,-30 147,-10 127,-10"/>
<text text-anchor="start" x="150.73" y="-15.4" font-family="Times-12" font-size="14.00"> &#160;Module</text>
<polygon fill="#80b1d3" stroke="transparent" points="213,-10 213,-30 233,-30 233,-10 213,-10"/>
<text text-anchor="start" x="236.78" y="-15.4" font-family="Times-12" font-size="14.00"> &#160;Bootstrap</text>
<polygon fill="#fdb462" stroke="transparent" points="310,-10 310,-30 330,-30 330,-10 310,-10"/>
<text text-anchor="start" x="333.67" y="-15.4" font-family="Times-12" font-size="14.00"> &#160;Providers</text>
<polygon fill="#fb8072" stroke="transparent" points="406,-10 406,-30 426,-30 426,-10 406,-10"/>
<text text-anchor="start" x="429.73" y="-15.4" font-family="Times-12" font-size="14.00"> &#160;Exports</text>
<g id="clust1" class="cluster">
<title>cluster_CoreModule</title>
<polygon fill="none" stroke="black" stroke-dasharray="1,5" points="63,-70 63,-268 433,-268 433,-70 63,-70"/>
</g>
<g id="clust6" class="cluster">
<title>cluster_CoreModule_exports</title>
<polygon fill="none" stroke="black" points="71,-208 71,-260 425,-260 425,-208 71,-208"/>
</g>
<g id="clust2" class="cluster">
<title>cluster_CoreModule_declarations</title>
<polygon fill="none" stroke="black" points="75,-78 75,-130 421,-130 421,-78 75,-78"/>
</g>
<!-- ErrorBoxComponent -->
<g id="node1" class="node">
<title>ErrorBoxComponent</title>
<polygon fill="#ffffb3" stroke="black" points="413.2,-122 278.8,-122 278.8,-86 413.2,-86 413.2,-122"/>
<text text-anchor="middle" x="346" y="-99.8" font-family="Times,serif" font-size="14.00">ErrorBoxComponent</text>
</g>
<!-- CoreModule -->
<g id="node3" class="node">
<title>CoreModule</title>
<polygon fill="#8dd3c7" stroke="black" points="216.26,-187 213.26,-191 192.26,-191 189.26,-187 129.74,-187 129.74,-151 216.26,-151 216.26,-187"/>
<text text-anchor="middle" x="173" y="-164.8" font-family="Times,serif" font-size="14.00">CoreModule</text>
</g>
<!-- ErrorBoxComponent&#45;&gt;CoreModule -->
<g id="edge1" class="edge">
<title>ErrorBoxComponent&#45;&gt;CoreModule</title>
<path fill="none" stroke="black" d="M368.45,-122.02C368.45,-139.37 368.45,-163 368.45,-163 368.45,-163 226.38,-163 226.38,-163"/>
<polygon fill="black" stroke="black" points="226.38,-159.5 216.38,-163 226.38,-166.5 226.38,-159.5"/>
</g>
<!-- LoadingIndicatorComponent -->
<g id="node2" class="node">
<title>LoadingIndicatorComponent</title>
<polygon fill="#ffffb3" stroke="black" points="261.02,-122 82.98,-122 82.98,-86 261.02,-86 261.02,-122"/>
<text text-anchor="middle" x="172" y="-99.8" font-family="Times,serif" font-size="14.00">LoadingIndicatorComponent</text>
</g>
<!-- LoadingIndicatorComponent&#45;&gt;CoreModule -->
<g id="edge2" class="edge">
<title>LoadingIndicatorComponent&#45;&gt;CoreModule</title>
<path fill="none" stroke="black" d="M173,-122.11C173,-122.11 173,-140.99 173,-140.99"/>
<polygon fill="black" stroke="black" points="169.5,-140.99 173,-150.99 176.5,-140.99 169.5,-140.99"/>
</g>
<!-- ErrorBoxComponent  -->
<g id="node4" class="node">
<title>ErrorBoxComponent </title>
<polygon fill="#fb8072" stroke="black" points="416.7,-252 279.3,-252 279.3,-216 416.7,-216 416.7,-252"/>
<text text-anchor="middle" x="348" y="-229.8" font-family="Times,serif" font-size="14.00">ErrorBoxComponent </text>
</g>
<!-- CoreModule&#45;&gt;ErrorBoxComponent  -->
<g id="edge3" class="edge">
<title>CoreModule&#45;&gt;ErrorBoxComponent </title>
<path fill="none" stroke="black" stroke-dasharray="5,2" d="M216.62,-175C261.15,-175 323.8,-175 323.8,-175 323.8,-175 323.8,-205.98 323.8,-205.98"/>
<polygon fill="black" stroke="black" points="320.3,-205.98 323.8,-215.98 327.3,-205.98 320.3,-205.98"/>
</g>
<!-- LoadingIndicatorComponent  -->
<g id="node5" class="node">
<title>LoadingIndicatorComponent </title>
<polygon fill="#fb8072" stroke="black" points="261.02,-252 78.98,-252 78.98,-216 261.02,-216 261.02,-252"/>
<text text-anchor="middle" x="170" y="-229.8" font-family="Times,serif" font-size="14.00">LoadingIndicatorComponent </text>
</g>
<!-- CoreModule&#45;&gt;LoadingIndicatorComponent  -->
<g id="edge4" class="edge">
<title>CoreModule&#45;&gt;LoadingIndicatorComponent </title>
<path fill="none" stroke="black" stroke-dasharray="5,2" d="M173,-187.11C173,-187.11 173,-205.99 173,-205.99"/>
<polygon fill="black" stroke="black" points="169.5,-205.99 173,-215.99 176.5,-205.99 169.5,-205.99"/>
</g>
</g>
</svg>
