<?xml version="1.0" encoding="UTF-8" standalone="no"?>
<!DOCTYPE svg PUBLIC "-//W3C//DTD SVG 1.1//EN"
 "http://www.w3.org/Graphics/SVG/1.1/DTD/svg11.dtd">
<!-- Generated by graphviz version 2.47.0 (20210316.0004)
 -->
<!-- Title: dependencies Pages: 1 -->
<svg width="1230pt" height="211pt"
 viewBox="0.00 0.00 1230.00 211.00" xmlns="http://www.w3.org/2000/svg" xmlns:xlink="http://www.w3.org/1999/xlink">
<g id="graph0" class="graph" transform="scale(1 1) rotate(0) translate(4 207)">
<title>dependencies</title>
<polygon fill="white" stroke="transparent" points="-4,4 -4,-207 1226,-207 1226,4 -4,4"/>
<text text-anchor="start" x="590.01" y="-42.4" font-family="Times-12" font-weight="bold" font-size="14.00">Legend</text>
<polygon fill="#ffffb3" stroke="transparent" points="377,-10 377,-30 397,-30 397,-10 377,-10"/>
<text text-anchor="start" x="400.63" y="-15.4" font-family="Times-12" font-size="14.00"> &#160;Declarations</text>
<polygon fill="#8dd3c7" stroke="transparent" points="490,-10 490,-30 510,-30 510,-10 490,-10"/>
<text text-anchor="start" x="513.73" y="-15.4" font-family="Times-12" font-size="14.00"> &#160;Module</text>
<polygon fill="#80b1d3" stroke="transparent" points="576,-10 576,-30 596,-30 596,-10 576,-10"/>
<text text-anchor="start" x="599.78" y="-15.4" font-family="Times-12" font-size="14.00"> &#160;Bootstrap</text>
<polygon fill="#fdb462" stroke="transparent" points="673,-10 673,-30 693,-30 693,-10 673,-10"/>
<text text-anchor="start" x="696.67" y="-15.4" font-family="Times-12" font-size="14.00"> &#160;Providers</text>
<polygon fill="#fb8072" stroke="transparent" points="769,-10 769,-30 789,-30 789,-10 769,-10"/>
<text text-anchor="start" x="792.73" y="-15.4" font-family="Times-12" font-size="14.00"> &#160;Exports</text>
<g id="clust1" class="cluster">
<title>cluster_CustomerModule</title>
<polygon fill="none" stroke="black" stroke-dasharray="1,5" points="8,-70 8,-195 1214,-195 1214,-70 8,-70"/>
</g>
<g id="clust2" class="cluster">
<title>cluster_CustomerModule_declarations</title>
<polygon fill="none" stroke="black" points="304,-78 304,-130 1206,-130 1206,-78 304,-78"/>
</g>
<g id="clust8" class="cluster">
<title>cluster_CustomerModule_imports</title>
<polygon fill="none" stroke="black" points="16,-78 16,-130 296,-130 296,-78 16,-78"/>
</g>
<!-- CustomerEditComponent -->
<g id="node1" class="node">
<title>CustomerEditComponent</title>
<polygon fill="#ffffb3" stroke="black" points="1197.6,-122 1038.4,-122 1038.4,-86 1197.6,-86 1197.6,-122"/>
<text text-anchor="middle" x="1118" y="-99.8" font-family="Times,serif" font-size="14.00">CustomerEditComponent</text>
</g>
<!-- CustomerModule -->
<g id="node6" class="node">
<title>CustomerModule</title>
<polygon fill="#8dd3c7" stroke="black" points="627.99,-187 624.99,-191 603.99,-191 600.99,-187 514.01,-187 514.01,-151 627.99,-151 627.99,-187"/>
<text text-anchor="middle" x="571" y="-164.8" font-family="Times,serif" font-size="14.00">CustomerModule</text>
</g>
<!-- CustomerEditComponent&#45;&gt;CustomerModule -->
<g id="edge1" class="edge">
<title>CustomerEditComponent&#45;&gt;CustomerModule</title>
<path fill="none" stroke="black" d="M1118,-122.29C1118,-144.21 1118,-178 1118,-178 1118,-178 637.99,-178 637.99,-178"/>
<polygon fill="black" stroke="black" points="637.99,-174.5 627.99,-178 637.99,-181.5 637.99,-174.5"/>
</g>
<!-- CustomerFormComponent -->
<g id="node2" class="node">
<title>CustomerFormComponent</title>
<polygon fill="#ffffb3" stroke="black" points="1020.1,-122 853.9,-122 853.9,-86 1020.1,-86 1020.1,-122"/>
<text text-anchor="middle" x="937" y="-99.8" font-family="Times,serif" font-size="14.00">CustomerFormComponent</text>
</g>
<!-- CustomerFormComponent&#45;&gt;CustomerModule -->
<g id="edge2" class="edge">
<title>CustomerFormComponent&#45;&gt;CustomerModule</title>
<path fill="none" stroke="black" d="M937,-122.11C937,-141.34 937,-169 937,-169 937,-169 638.19,-169 638.19,-169"/>
<polygon fill="black" stroke="black" points="638.19,-165.5 628.19,-169 638.19,-172.5 638.19,-165.5"/>
</g>
<!-- CustomerIndexComponent -->
<g id="node3" class="node">
<title>CustomerIndexComponent</title>
<polygon fill="#ffffb3" stroke="black" points="835.65,-122 668.35,-122 668.35,-86 835.65,-86 835.65,-122"/>
<text text-anchor="middle" x="752" y="-99.8" font-family="Times,serif" font-size="14.00">CustomerIndexComponent</text>
</g>
<!-- CustomerIndexComponent&#45;&gt;CustomerModule -->
<g id="edge3" class="edge">
<title>CustomerIndexComponent&#45;&gt;CustomerModule</title>
<path fill="none" stroke="black" d="M752,-122.03C752,-138.4 752,-160 752,-160 752,-160 638.27,-160 638.27,-160"/>
<polygon fill="black" stroke="black" points="638.27,-156.5 628.27,-160 638.27,-163.5 638.27,-156.5"/>
</g>
<!-- CustomerListComponent -->
<g id="node4" class="node">
<title>CustomerListComponent</title>
<polygon fill="#ffffb3" stroke="black" points="649.55,-122 492.45,-122 492.45,-86 649.55,-86 649.55,-122"/>
<text text-anchor="middle" x="571" y="-99.8" font-family="Times,serif" font-size="14.00">CustomerListComponent</text>
</g>
<!-- CustomerListComponent&#45;&gt;CustomerModule -->
<g id="edge4" class="edge">
<title>CustomerListComponent&#45;&gt;CustomerModule</title>
<path fill="none" stroke="black" d="M571,-122.11C571,-122.11 571,-140.99 571,-140.99"/>
<polygon fill="black" stroke="black" points="567.5,-140.99 571,-150.99 574.5,-140.99 567.5,-140.99"/>
</g>
<!-- CustomerNewComponent -->
<g id="node5" class="node">
<title>CustomerNewComponent</title>
<polygon fill="#ffffb3" stroke="black" points="474.2,-122 311.8,-122 311.8,-86 474.2,-86 474.2,-122"/>
<text text-anchor="middle" x="393" y="-99.8" font-family="Times,serif" font-size="14.00">CustomerNewComponent</text>
</g>
<!-- CustomerNewComponent&#45;&gt;CustomerModule -->
<g id="edge5" class="edge">
<title>CustomerNewComponent&#45;&gt;CustomerModule</title>
<path fill="none" stroke="black" d="M393,-122.03C393,-138.4 393,-160 393,-160 393,-160 503.7,-160 503.7,-160"/>
<polygon fill="black" stroke="black" points="503.7,-163.5 513.7,-160 503.7,-156.5 503.7,-163.5"/>
</g>
<!-- CoreModule -->
<g id="node7" class="node">
<title>CoreModule</title>
<polygon fill="#8dd3c7" stroke="black" points="288.26,-122 285.26,-126 264.26,-126 261.26,-122 201.74,-122 201.74,-86 288.26,-86 288.26,-122"/>
<text text-anchor="middle" x="245" y="-99.8" font-family="Times,serif" font-size="14.00">CoreModule</text>
</g>
<!-- CoreModule&#45;&gt;CustomerModule -->
<g id="edge6" class="edge">
<title>CoreModule&#45;&gt;CustomerModule</title>
<path fill="none" stroke="black" d="M245,-122.11C245,-141.34 245,-169 245,-169 245,-169 503.84,-169 503.84,-169"/>
<polygon fill="black" stroke="black" points="503.84,-172.5 513.84,-169 503.84,-165.5 503.84,-172.5"/>
</g>
<!-- CustomerRoutingModule -->
<g id="node8" class="node">
<title>CustomerRoutingModule</title>
<polygon fill="#8dd3c7" stroke="black" points="183.61,-122 180.61,-126 159.61,-126 156.61,-122 24.39,-122 24.39,-86 183.61,-86 183.61,-122"/>
<text text-anchor="middle" x="104" y="-99.8" font-family="Times,serif" font-size="14.00">CustomerRoutingModule</text>
</g>
<!-- CustomerRoutingModule&#45;&gt;CustomerModule -->
<g id="edge7" class="edge">
<title>CustomerRoutingModule&#45;&gt;CustomerModule</title>
<path fill="none" stroke="black" d="M104,-122.29C104,-144.21 104,-178 104,-178 104,-178 503.74,-178 503.74,-178"/>
<polygon fill="black" stroke="black" points="503.74,-181.5 513.74,-178 503.74,-174.5 503.74,-181.5"/>
</g>
</g>
</svg>
