<?xml version="1.0" encoding="UTF-8" standalone="no"?>
<!DOCTYPE svg PUBLIC "-//W3C//DTD SVG 1.1//EN"
 "http://www.w3.org/Graphics/SVG/1.1/DTD/svg11.dtd">
<!-- Generated by graphviz version 2.47.0 (20210316.0004)
 -->
<!-- Title: dependencies Pages: 1 -->
<svg width="1230pt" height="211pt"
 viewBox="0.00 0.00 1230.00 211.00" xmlns="http://www.w3.org/2000/svg" xmlns:xlink="http://www.w3.org/1999/xlink">
<g id="graph0" class="graph" transform="scale(1 1) rotate(0) translate(4 207)">
<title>dependencies</title>
<polygon fill="white" stroke="transparent" points="-4,4 -4,-207 1226,-207 1226,4 -4,4"/>
<text text-anchor="start" x="590.01" y="-42.4" font-family="Times-12" font-weight="bold" font-size="14.00">Legend</text>
<polygon fill="#ffffb3" stroke="transparent" points="377,-10 377,-30 397,-30 397,-10 377,-10"/>
<text text-anchor="start" x="400.63" y="-15.4" font-family="Times-12" font-size="14.00"> &#160;Declarations</text>
<polygon fill="#8dd3c7" stroke="transparent" points="490,-10 490,-30 510,-30 510,-10 490,-10"/>
<text text-anchor="start" x="513.73" y="-15.4" font-family="Times-12" font-size="14.00"> &#160;Module</text>
<polygon fill="#80b1d3" stroke="transparent" points="576,-10 576,-30 596,-30 596,-10 576,-10"/>
<text text-anchor="start" x="599.78" y="-15.4" font-family="Times-12" font-size="14.00"> &#160;Bootstrap</text>
<polygon fill="#fdb462" stroke="transparent" points="673,-10 673,-30 693,-30 693,-10 673,-10"/>
<text text-anchor="start" x="696.67" y="-15.4" font-family="Times-12" font-size="14.00"> &#160;Providers</text>
<polygon fill="#fb8072" stroke="transparent" points="769,-10 769,-30 789,-30 789,-10 769,-10"/>
<text text-anchor="start" x="792.73" y="-15.4" font-family="Times-12" font-size="14.00"> &#160;Exports</text>
<g id="clust1" class="cluster">
<title>cluster_CustomerModule</title>
<polygon fill="none" stroke="black" stroke-dasharray="1,5" points="8,-70 8,-195 1214,-195 1214,-70 8,-70"/>
</g>
<g id="clust8" class="cluster">
<title>cluster_CustomerModule_imports</title>
<polygon fill="none" stroke="black" points="926,-78 926,-130 1206,-130 1206,-78 926,-78"/>
</g>
<g id="clust2" class="cluster">
<title>cluster_CustomerModule_declarations</title>
<polygon fill="none" stroke="black" points="16,-78 16,-130 918,-130 918,-78 16,-78"/>
</g>
<!-- CustomerEditComponent -->
<g id="node1" class="node">
<title>CustomerEditComponent</title>
<polygon fill="#ffffb3" stroke="black" points="909.6,-122 750.4,-122 750.4,-86 909.6,-86 909.6,-122"/>
<text text-anchor="middle" x="830" y="-99.8" font-family="Times,serif" font-size="14.00">CustomerEditComponent</text>
</g>
<!-- CustomerModule -->
<g id="node6" class="node">
<title>CustomerModule</title>
<polygon fill="#8dd3c7" stroke="black" points="705.99,-187 702.99,-191 681.99,-191 678.99,-187 592.01,-187 592.01,-151 705.99,-151 705.99,-187"/>
<text text-anchor="middle" x="649" y="-164.8" font-family="Times,serif" font-size="14.00">CustomerModule</text>
</g>
<!-- CustomerEditComponent&#45;&gt;CustomerModule -->
<g id="edge1" class="edge">
<title>CustomerEditComponent&#45;&gt;CustomerModule</title>
<path fill="none" stroke="black" d="M830,-122.03C830,-138.4 830,-160 830,-160 830,-160 716.27,-160 716.27,-160"/>
<polygon fill="black" stroke="black" points="716.27,-156.5 706.27,-160 716.27,-163.5 716.27,-156.5"/>
</g>
<!-- CustomerFormComponent -->
<g id="node2" class="node">
<title>CustomerFormComponent</title>
<polygon fill="#ffffb3" stroke="black" points="732.1,-122 565.9,-122 565.9,-86 732.1,-86 732.1,-122"/>
<text text-anchor="middle" x="649" y="-99.8" font-family="Times,serif" font-size="14.00">CustomerFormComponent</text>
</g>
<!-- CustomerFormComponent&#45;&gt;CustomerModule -->
<g id="edge2" class="edge">
<title>CustomerFormComponent&#45;&gt;CustomerModule</title>
<path fill="none" stroke="black" d="M649,-122.11C649,-122.11 649,-140.99 649,-140.99"/>
<polygon fill="black" stroke="black" points="645.5,-140.99 649,-150.99 652.5,-140.99 645.5,-140.99"/>
</g>
<!-- CustomerIndexComponent -->
<g id="node3" class="node">
<title>CustomerIndexComponent</title>
<polygon fill="#ffffb3" stroke="black" points="547.65,-122 380.35,-122 380.35,-86 547.65,-86 547.65,-122"/>
<text text-anchor="middle" x="464" y="-99.8" font-family="Times,serif" font-size="14.00">CustomerIndexComponent</text>
</g>
<!-- CustomerIndexComponent&#45;&gt;CustomerModule -->
<g id="edge3" class="edge">
<title>CustomerIndexComponent&#45;&gt;CustomerModule</title>
<path fill="none" stroke="black" d="M464,-122.03C464,-138.4 464,-160 464,-160 464,-160 581.98,-160 581.98,-160"/>
<polygon fill="black" stroke="black" points="581.98,-163.5 591.98,-160 581.98,-156.5 581.98,-163.5"/>
</g>
<!-- CustomerListComponent -->
<g id="node4" class="node">
<title>CustomerListComponent</title>
<polygon fill="#ffffb3" stroke="black" points="361.55,-122 204.45,-122 204.45,-86 361.55,-86 361.55,-122"/>
<text text-anchor="middle" x="283" y="-99.8" font-family="Times,serif" font-size="14.00">CustomerListComponent</text>
</g>
<!-- CustomerListComponent&#45;&gt;CustomerModule -->
<g id="edge4" class="edge">
<title>CustomerListComponent&#45;&gt;CustomerModule</title>
<path fill="none" stroke="black" d="M283,-122.11C283,-141.34 283,-169 283,-169 283,-169 581.81,-169 581.81,-169"/>
<polygon fill="black" stroke="black" points="581.81,-172.5 591.81,-169 581.81,-165.5 581.81,-172.5"/>
</g>
<!-- CustomerNewComponent -->
<g id="node5" class="node">
<title>CustomerNewComponent</title>
<polygon fill="#ffffb3" stroke="black" points="186.2,-122 23.8,-122 23.8,-86 186.2,-86 186.2,-122"/>
<text text-anchor="middle" x="105" y="-99.8" font-family="Times,serif" font-size="14.00">CustomerNewComponent</text>
</g>
<!-- CustomerNewComponent&#45;&gt;CustomerModule -->
<g id="edge5" class="edge">
<title>CustomerNewComponent&#45;&gt;CustomerModule</title>
<path fill="none" stroke="black" d="M105,-122.29C105,-144.21 105,-178 105,-178 105,-178 581.81,-178 581.81,-178"/>
<polygon fill="black" stroke="black" points="581.81,-181.5 591.81,-178 581.81,-174.5 581.81,-181.5"/>
</g>
<!-- CoreModule -->
<g id="node7" class="node">
<title>CoreModule</title>
<polygon fill="#8dd3c7" stroke="black" points="1198.26,-122 1195.26,-126 1174.26,-126 1171.26,-122 1111.74,-122 1111.74,-86 1198.26,-86 1198.26,-122"/>
<text text-anchor="middle" x="1155" y="-99.8" font-family="Times,serif" font-size="14.00">CoreModule</text>
</g>
<!-- CoreModule&#45;&gt;CustomerModule -->
<g id="edge6" class="edge">
<title>CoreModule&#45;&gt;CustomerModule</title>
<path fill="none" stroke="black" d="M1155,-122.29C1155,-144.21 1155,-178 1155,-178 1155,-178 716.06,-178 716.06,-178"/>
<polygon fill="black" stroke="black" points="716.06,-174.5 706.06,-178 716.06,-181.5 716.06,-174.5"/>
</g>
<!-- CustomerRoutingModule -->
<g id="node8" class="node">
<title>CustomerRoutingModule</title>
<polygon fill="#8dd3c7" stroke="black" points="1093.61,-122 1090.61,-126 1069.61,-126 1066.61,-122 934.39,-122 934.39,-86 1093.61,-86 1093.61,-122"/>
<text text-anchor="middle" x="1014" y="-99.8" font-family="Times,serif" font-size="14.00">CustomerRoutingModule</text>
</g>
<!-- CustomerRoutingModule&#45;&gt;CustomerModule -->
<g id="edge7" class="edge">
<title>CustomerRoutingModule&#45;&gt;CustomerModule</title>
<path fill="none" stroke="black" d="M1014,-122.11C1014,-141.34 1014,-169 1014,-169 1014,-169 716.03,-169 716.03,-169"/>
<polygon fill="black" stroke="black" points="716.03,-165.5 706.03,-169 716.03,-172.5 716.03,-165.5"/>
</g>
</g>
</svg>
